<?xml version="1.0" encoding="utf-8" standalone="no"?>
<!DOCTYPE svg PUBLIC "-//W3C//DTD SVG 1.1//EN"
  "http://www.w3.org/Graphics/SVG/1.1/DTD/svg11.dtd">
<svg xmlns:xlink="http://www.w3.org/1999/xlink" width="241.2pt" height="176.4pt" viewBox="0 0 241.2 176.4" xmlns="http://www.w3.org/2000/svg" version="1.1">
 <metadata>
  <rdf:RDF xmlns:dc="http://purl.org/dc/elements/1.1/" xmlns:cc="http://creativecommons.org/ns#" xmlns:rdf="http://www.w3.org/1999/02/22-rdf-syntax-ns#">
   <cc:Work>
    <dc:type rdf:resource="http://purl.org/dc/dcmitype/StillImage"/>
    <dc:date>2026-07-28T01:00:44.997039</dc:date>
    <dc:format>image/svg+xml</dc:format>
    <dc:creator>
     <cc:Agent>
      <dc:title>Matplotlib v3.11.1, https://matplotlib.org/</dc:title>
     </cc:Agent>
    </dc:creator>
   </cc:Work>
  </rdf:RDF>
 </metadata>
 <defs>
  <style type="text/css">*{stroke-linejoin: round; stroke-linecap: butt}</style>
 </defs>
 <g id="figure_1">
  <g id="patch_1">
   <path d="M 0 176.4 
L 241.2 176.4 
L 241.2 0 
L 0 0 
z
" style="fill: #ffffff"/>
  </g>
  <g id="axes_1">
   <g id="patch_2">
    <path d="M 57.888 128.772 
L 236.376 128.772 
L 236.376 52.92 
L 57.888 52.92 
z
" style="fill: #ffffff"/>
   </g>
   <g id="matplotlib.axis_1">
    <g id="xtick_1">
     <g id="line2d_1">
      <path d="M 61.8544 128.772 
L 61.8544 52.92 
" clip-path="url(#p36f2e7ab10)" style="fill: none; stroke: #d1d6d7; stroke-opacity: 0.75; stroke-width: 0.55; stroke-linecap: square"/>
     </g>
     <g id="line2d_2">
      <defs>
       <path id="m32cc130eb4" d="M 0 0 
L 0 3.5 
" style="stroke: #000000; stroke-width: 0.8"/>
      </defs>
      <g>
       <use xlink:href="#m32cc130eb4" x="61.8544" y="128.772" style="stroke: #000000; stroke-width: 0.8"/>
      </g>
     </g>
     <g id="text_1">
      <text style="font-size: 7.8px; font-family: 'DejaVu Sans', sans-serif; text-anchor: middle" x="61.8544" y="141.698172" transform="rotate(-0 61.8544 141.698172)">0</text>
     </g>
    </g>
    <g id="xtick_2">
     <g id="line2d_3">
      <path d="M 101.5184 128.772 
L 101.5184 52.92 
" clip-path="url(#p36f2e7ab10)" style="fill: none; stroke: #d1d6d7; stroke-opacity: 0.75; stroke-width: 0.55; stroke-linecap: square"/>
     </g>
     <g id="line2d_4">
      <g>
       <use xlink:href="#m32cc130eb4" x="101.5184" y="128.772" style="stroke: #000000; stroke-width: 0.8"/>
      </g>
     </g>
     <g id="text_2">
      <text style="font-size: 7.8px; font-family: 'DejaVu Sans', sans-serif; text-anchor: middle" x="101.5184" y="141.698172" transform="rotate(-0 101.5184 141.698172)">20</text>
     </g>
    </g>
    <g id="xtick_3">
     <g id="line2d_5">
      <path d="M 141.1824 128.772 
L 141.1824 52.92 
" clip-path="url(#p36f2e7ab10)" style="fill: none; stroke: #d1d6d7; stroke-opacity: 0.75; stroke-width: 0.55; stroke-linecap: square"/>
     </g>
     <g id="line2d_6">
      <g>
       <use xlink:href="#m32cc130eb4" x="141.1824" y="128.772" style="stroke: #000000; stroke-width: 0.8"/>
      </g>
     </g>
     <g id="text_3">
      <text style="font-size: 7.8px; font-family: 'DejaVu Sans', sans-serif; text-anchor: middle" x="141.1824" y="141.698172" transform="rotate(-0 141.1824 141.698172)">40</text>
     </g>
    </g>
    <g id="xtick_4">
     <g id="line2d_7">
      <path d="M 180.8464 128.772 
L 180.8464 52.92 
" clip-path="url(#p36f2e7ab10)" style="fill: none; stroke: #d1d6d7; stroke-opacity: 0.75; stroke-width: 0.55; stroke-linecap: square"/>
     </g>
     <g id="line2d_8">
      <g>
       <use xlink:href="#m32cc130eb4" x="180.8464" y="128.772" style="stroke: #000000; stroke-width: 0.8"/>
      </g>
     </g>
     <g id="text_4">
      <text style="font-size: 7.8px; font-family: 'DejaVu Sans', sans-serif; text-anchor: middle" x="180.8464" y="141.698172" transform="rotate(-0 180.8464 141.698172)">60</text>
     </g>
    </g>
    <g id="xtick_5">
     <g id="line2d_9">
      <path d="M 220.5104 128.772 
L 220.5104 52.92 
" clip-path="url(#p36f2e7ab10)" style="fill: none; stroke: #d1d6d7; stroke-opacity: 0.75; stroke-width: 0.55; stroke-linecap: square"/>
     </g>
     <g id="line2d_10">
      <g>
       <use xlink:href="#m32cc130eb4" x="220.5104" y="128.772" style="stroke: #000000; stroke-width: 0.8"/>
      </g>
     </g>
     <g id="text_5">
      <text style="font-size: 7.8px; font-family: 'DejaVu Sans', sans-serif; text-anchor: middle" x="220.5104" y="141.698172" transform="rotate(-0 220.5104 141.698172)">80</text>
     </g>
    </g>
    <g id="text_6">
     <text style="font-size: 8.1px; font-family: 'DejaVu Sans', sans-serif" transform="translate(90.633234 153.537525)">Conditional substitution (%)</text>
     <text style="font-size: 8.1px; font-family: 'DejaVu Sans', sans-serif" transform="translate(87.602063 163.25974)">shared-eligible Preserve rows</text>
    </g>
   </g>
   <g id="matplotlib.axis_2">
    <g id="ytick_1">
     <g id="line2d_11"/>
     <g id="text_7">
      <text style="font-weight: 700; font-size: 7.8px; font-family: 'DejaVu Sans', sans-serif; text-anchor: end" x="54.388" y="72.739086" transform="rotate(-0 54.388 72.739086)">Qwen</text>
     </g>
    </g>
    <g id="ytick_2">
     <g id="line2d_12"/>
     <g id="text_8">
      <text style="font-weight: 700; font-size: 7.8px; font-family: 'DejaVu Sans', sans-serif; text-anchor: end" x="54.388" y="96.819086" transform="rotate(-0 54.388 96.819086)">GLM</text>
     </g>
    </g>
    <g id="ytick_3">
     <g id="line2d_13"/>
     <g id="text_9">
      <text style="font-weight: 700; font-size: 7.8px; font-family: 'DejaVu Sans', sans-serif; text-anchor: end" x="54.388" y="120.899391" transform="rotate(-0 54.388 120.899391)">DeepSeek</text>
     </g>
    </g>
   </g>
   <g id="line2d_14">
    <path d="M 61.8544 69.776 
L 185.053188 69.776 
" clip-path="url(#p36f2e7ab10)" style="fill: none; stroke: #d1d6d7; stroke-width: 1.8; stroke-linecap: square"/>
   </g>
   <g id="line2d_15">
    <path d="M 61.8544 93.856 
L 146.848686 93.856 
" clip-path="url(#p36f2e7ab10)" style="fill: none; stroke: #d1d6d7; stroke-width: 1.8; stroke-linecap: square"/>
   </g>
   <g id="line2d_16">
    <path d="M 61.8544 117.936 
L 205.564545 117.936 
" clip-path="url(#p36f2e7ab10)" style="fill: none; stroke: #d1d6d7; stroke-width: 1.8; stroke-linecap: square"/>
   </g>
   <g id="line2d_17">
    <path d="M 61.8544 128.772 
L 61.8544 52.92 
" clip-path="url(#p36f2e7ab10)" style="fill: none; stroke: #29343a; stroke-width: 0.9; stroke-linecap: square"/>
   </g>
   <g id="patch_3">
    <path d="M 57.888 128.772 
L 236.376 128.772 
" style="fill: none; stroke: #000000; stroke-width: 0.7; stroke-linejoin: miter; stroke-linecap: square"/>
   </g>
   <g id="LineCollection_1">
    <path d="M 161.130369 69.776 
L 206.331617 69.776 
" clip-path="url(#p36f2e7ab10)" style="fill: none; stroke: #b9534f; stroke-width: 1.1"/>
   </g>
   <g id="line2d_18">
    <defs>
     <path id="mdf805c3cef" d="M 0 2.6 
L 0 -2.6 
" style="stroke: #b9534f; stroke-width: 0.7"/>
    </defs>
    <g clip-path="url(#p36f2e7ab10)">
     <use xlink:href="#mdf805c3cef" x="161.130369" y="69.776" style="fill: #1f77b4; stroke: #b9534f; stroke-width: 0.7"/>
    </g>
   </g>
   <g id="line2d_19">
    <g clip-path="url(#p36f2e7ab10)">
     <use xlink:href="#mdf805c3cef" x="206.331617" y="69.776" style="fill: #1f77b4; stroke: #b9534f; stroke-width: 0.7"/>
    </g>
   </g>
   <g id="text_10">
    <text style="font-weight: 700; font-size: 7.8px; font-family: 'DejaVu Sans', sans-serif; text-anchor: middle; fill: #b9534f" x="185.053188" y="61.641372" transform="rotate(-0 185.053188 61.641372)">41/66</text>
   </g>
   <g id="text_11">
    <text style="font-weight: 700; font-size: 7.8px; font-family: 'DejaVu Sans', sans-serif; text-anchor: start; fill: #2d746f" x="65.8208" y="81.962972" transform="rotate(-0 65.8208 81.962972)">0/66</text>
   </g>
   <g id="LineCollection_2">
    <path d="M 125.188504 93.856 
L 169.982755 93.856 
" clip-path="url(#p36f2e7ab10)" style="fill: none; stroke: #b9534f; stroke-width: 1.1"/>
   </g>
   <g id="line2d_20">
    <defs>
     <path id="m8cff6d869f" d="M 0 2.6 
L 0 -2.6 
" style="stroke: #b9534f; stroke-width: 0.7"/>
    </defs>
    <g clip-path="url(#p36f2e7ab10)">
     <use xlink:href="#m8cff6d869f" x="125.188504" y="93.856" style="fill: #2ca02c; stroke: #b9534f; stroke-width: 0.7"/>
    </g>
   </g>
   <g id="line2d_21">
    <g clip-path="url(#p36f2e7ab10)">
     <use xlink:href="#m8cff6d869f" x="169.982755" y="93.856" style="fill: #2ca02c; stroke: #b9534f; stroke-width: 0.7"/>
    </g>
   </g>
   <g id="text_12">
    <text style="font-weight: 700; font-size: 7.8px; font-family: 'DejaVu Sans', sans-serif; text-anchor: middle; fill: #b9534f" x="146.848686" y="85.721372" transform="rotate(-0 146.848686 85.721372)">30/70</text>
   </g>
   <g id="text_13">
    <text style="font-weight: 700; font-size: 7.8px; font-family: 'DejaVu Sans', sans-serif; text-anchor: start; fill: #2d746f" x="65.8208" y="106.042972" transform="rotate(-0 65.8208 106.042972)">0/70</text>
   </g>
   <g id="LineCollection_3">
    <path d="M 182.7358 117.936 
L 223.694385 117.936 
" clip-path="url(#p36f2e7ab10)" style="fill: none; stroke: #b9534f; stroke-width: 1.1"/>
   </g>
   <g id="line2d_22">
    <defs>
     <path id="mf4c8ad20da" d="M 0 2.6 
L 0 -2.6 
" style="stroke: #b9534f; stroke-width: 0.7"/>
    </defs>
    <g clip-path="url(#p36f2e7ab10)">
     <use xlink:href="#mf4c8ad20da" x="182.7358" y="117.936" style="fill: #9467bd; stroke: #b9534f; stroke-width: 0.7"/>
    </g>
   </g>
   <g id="line2d_23">
    <g clip-path="url(#p36f2e7ab10)">
     <use xlink:href="#mf4c8ad20da" x="223.694385" y="117.936" style="fill: #9467bd; stroke: #b9534f; stroke-width: 0.7"/>
    </g>
   </g>
   <g id="text_14">
    <text style="font-weight: 700; font-size: 7.8px; font-family: 'DejaVu Sans', sans-serif; text-anchor: middle; fill: #b9534f" x="205.564545" y="109.801372" transform="rotate(-0 205.564545 109.801372)">50/69</text>
   </g>
   <g id="text_15">
    <text style="font-weight: 700; font-size: 7.8px; font-family: 'DejaVu Sans', sans-serif; text-anchor: start; fill: #2d746f" x="65.8208" y="130.122972" transform="rotate(-0 65.8208 130.122972)">0/69</text>
   </g>
   <g id="text_16">
    <text style="font-weight: 700; font-size: 8.8px; font-family: 'DejaVu Sans', sans-serif; text-anchor: middle" x="147.132" y="28.92" transform="rotate(-0 147.132 28.92)">Substitution after correct binding</text>
   </g>
   <g id="line2d_24">
    <defs>
     <path id="mc5faa010b2" d="M 0 2.9 
C 0.769089 2.9 1.506782 2.594438 2.05061 2.05061 
C 2.594438 1.506782 2.9 0.769089 2.9 0 
C 2.9 -0.769089 2.594438 -1.506782 2.05061 -2.05061 
C 1.506782 -2.594438 0.769089 -2.9 0 -2.9 
C -0.769089 -2.9 -1.506782 -2.594438 -2.05061 -2.05061 
C -2.594438 -1.506782 -2.9 -0.769089 -2.9 0 
C -2.9 0.769089 -2.594438 1.506782 -2.05061 2.05061 
C -1.506782 2.594438 -0.769089 2.9 0 2.9 
z
" style="stroke: #29343a; stroke-width: 0.7"/>
    </defs>
    <g clip-path="url(#p36f2e7ab10)">
     <use xlink:href="#mc5faa010b2" x="185.053188" y="69.776" style="fill: #b9534f; stroke: #29343a; stroke-width: 0.7"/>
    </g>
   </g>
   <g id="line2d_25">
    <defs>
     <path id="ma9741873cc" d="M -2.9 2.9 
L 2.9 2.9 
L 2.9 -2.9 
L -2.9 -2.9 
z
" style="stroke: #29343a; stroke-width: 0.7; stroke-linejoin: miter"/>
    </defs>
    <g clip-path="url(#p36f2e7ab10)">
     <use xlink:href="#ma9741873cc" x="146.848686" y="93.856" style="fill: #b9534f; stroke: #29343a; stroke-width: 0.7; stroke-linejoin: miter"/>
    </g>
   </g>
   <g id="line2d_26">
    <defs>
     <path id="m53119323e7" d="M -0 4.101219 
L 4.101219 0 
L -0 -4.101219 
L -4.101219 0 
z
" style="stroke: #29343a; stroke-width: 0.7; stroke-linejoin: miter"/>
    </defs>
    <g clip-path="url(#p36f2e7ab10)">
     <use xlink:href="#m53119323e7" x="205.564545" y="117.936" style="fill: #b9534f; stroke: #29343a; stroke-width: 0.7; stroke-linejoin: miter"/>
    </g>
   </g>
   <g id="LineCollection_4">
    <path d="M 61.8544 69.776 
L 72.762507 69.776 
" clip-path="url(#p36f2e7ab10)" style="fill: none; stroke: #2d746f; stroke-width: 1.1"/>
   </g>
   <g id="line2d_27">
    <defs>
     <path id="m034d5f904e" d="M 0 2.6 
L 0 -2.6 
" style="stroke: #2d746f; stroke-width: 1.2"/>
    </defs>
    <g clip-path="url(#p36f2e7ab10)">
     <use xlink:href="#m034d5f904e" x="61.8544" y="69.776" style="fill: #ff7f0e; stroke: #2d746f; stroke-width: 1.2"/>
    </g>
   </g>
   <g id="line2d_28">
    <g clip-path="url(#p36f2e7ab10)">
     <use xlink:href="#m034d5f904e" x="72.762507" y="69.776" style="fill: #ff7f0e; stroke: #2d746f; stroke-width: 1.2"/>
    </g>
   </g>
   <g id="LineCollection_5">
    <path d="M 61.8544 93.856 
L 72.171614 93.856 
" clip-path="url(#p36f2e7ab10)" style="fill: none; stroke: #2d746f; stroke-width: 1.1"/>
   </g>
   <g id="line2d_29">
    <defs>
     <path id="m821dd2f1a9" d="M 0 2.6 
L 0 -2.6 
" style="stroke: #2d746f; stroke-width: 1.2"/>
    </defs>
    <g clip-path="url(#p36f2e7ab10)">
     <use xlink:href="#m821dd2f1a9" x="61.8544" y="93.856" style="fill: #d62728; stroke: #2d746f; stroke-width: 1.2"/>
    </g>
   </g>
   <g id="line2d_30">
    <g clip-path="url(#p36f2e7ab10)">
     <use xlink:href="#m821dd2f1a9" x="72.171614" y="93.856" style="fill: #d62728; stroke: #2d746f; stroke-width: 1.2"/>
    </g>
   </g>
   <g id="LineCollection_6">
    <path d="M 61.8544 117.936 
L 72.313253 117.936 
" clip-path="url(#p36f2e7ab10)" style="fill: none; stroke: #2d746f; stroke-width: 1.1"/>
   </g>
   <g id="line2d_31">
    <defs>
     <path id="m79b4b43e58" d="M 0 2.6 
L 0 -2.6 
" style="stroke: #2d746f; stroke-width: 1.2"/>
    </defs>
    <g clip-path="url(#p36f2e7ab10)">
     <use xlink:href="#m79b4b43e58" x="61.8544" y="117.936" style="fill: #8c564b; stroke: #2d746f; stroke-width: 1.2"/>
    </g>
   </g>
   <g id="line2d_32">
    <g clip-path="url(#p36f2e7ab10)">
     <use xlink:href="#m79b4b43e58" x="72.313253" y="117.936" style="fill: #8c564b; stroke: #2d746f; stroke-width: 1.2"/>
    </g>
   </g>
   <g id="line2d_33">
    <defs>
     <path id="m17163c0ab4" d="M 0 2.9 
C 0.769089 2.9 1.506782 2.594438 2.05061 2.05061 
C 2.594438 1.506782 2.9 0.769089 2.9 0 
C 2.9 -0.769089 2.594438 -1.506782 2.05061 -2.05061 
C 1.506782 -2.594438 0.769089 -2.9 0 -2.9 
C -0.769089 -2.9 -1.506782 -2.594438 -2.05061 -2.05061 
C -2.594438 -1.506782 -2.9 -0.769089 -2.9 0 
C -2.9 0.769089 -2.594438 1.506782 -2.05061 2.05061 
C -1.506782 2.594438 -0.769089 2.9 0 2.9 
z
" style="stroke: #2d746f; stroke-width: 1.2"/>
    </defs>
    <g clip-path="url(#p36f2e7ab10)">
     <use xlink:href="#m17163c0ab4" x="61.8544" y="69.776" style="fill: #ffffff; stroke: #2d746f; stroke-width: 1.2"/>
    </g>
   </g>
   <g id="line2d_34">
    <defs>
     <path id="mf9247e35d8" d="M -2.9 2.9 
L 2.9 2.9 
L 2.9 -2.9 
L -2.9 -2.9 
z
" style="stroke: #2d746f; stroke-width: 1.2; stroke-linejoin: miter"/>
    </defs>
    <g clip-path="url(#p36f2e7ab10)">
     <use xlink:href="#mf9247e35d8" x="61.8544" y="93.856" style="fill: #ffffff; stroke: #2d746f; stroke-width: 1.2; stroke-linejoin: miter"/>
    </g>
   </g>
   <g id="line2d_35">
    <defs>
     <path id="m783cbc4abb" d="M -0 4.101219 
L 4.101219 0 
L -0 -4.101219 
L -4.101219 0 
z
" style="stroke: #2d746f; stroke-width: 1.2; stroke-linejoin: miter"/>
    </defs>
    <g clip-path="url(#p36f2e7ab10)">
     <use xlink:href="#m783cbc4abb" x="61.8544" y="117.936" style="fill: #ffffff; stroke: #2d746f; stroke-width: 1.2; stroke-linejoin: miter"/>
    </g>
   </g>
   <g id="legend_1">
    <g id="line2d_36">
     <path d="M 106.657354 54.793061 
L 114.457354 54.793061 
L 122.257354 54.793061 
" style="fill: none; stroke: #000000; stroke-opacity: 0; stroke-width: 1.5; stroke-linecap: square"/>
     <defs>
      <path id="mb8cc788e9a" d="M 0 2.8 
C 0.742569 2.8 1.454824 2.504974 1.979899 1.979899 
C 2.504974 1.454824 2.8 0.742569 2.8 0 
C 2.8 -0.742569 2.504974 -1.454824 1.979899 -1.979899 
C 1.454824 -2.504974 0.742569 -2.8 0 -2.8 
C -0.742569 -2.8 -1.454824 -2.504974 -1.979899 -1.979899 
C -2.504974 -1.454824 -2.8 -0.742569 -2.8 0 
C -2.8 0.742569 -2.504974 1.454824 -1.979899 1.979899 
C -1.454824 2.504974 -0.742569 2.8 0 2.8 
z
" style="stroke: #29343a"/>
     </defs>
     <g>
      <use xlink:href="#mb8cc788e9a" x="114.457354" y="54.793061" style="fill: #b9534f; stroke: #29343a"/>
     </g>
    </g>
    <g id="text_17">
     <text style="font-size: 7.8px; font-family: 'DejaVu Sans', sans-serif; text-anchor: start" x="124.597354" y="57.523061" transform="rotate(-0 124.597354 57.523061)">Generic</text>
    </g>
    <g id="line2d_37">
     <path d="M 161.86551 54.793061 
L 169.66551 54.793061 
L 177.46551 54.793061 
" style="fill: none; stroke: #000000; stroke-opacity: 0; stroke-width: 1.5; stroke-linecap: square"/>
     <defs>
      <path id="m7b048a7be2" d="M 0 2.8 
C 0.742569 2.8 1.454824 2.504974 1.979899 1.979899 
C 2.504974 1.454824 2.8 0.742569 2.8 0 
C 2.8 -0.742569 2.504974 -1.454824 1.979899 -1.979899 
C 1.454824 -2.504974 0.742569 -2.8 0 -2.8 
C -0.742569 -2.8 -1.454824 -2.504974 -1.979899 -1.979899 
C -2.504974 -1.454824 -2.8 -0.742569 -2.8 0 
C -2.8 0.742569 -2.504974 1.454824 -1.979899 1.979899 
C -1.454824 2.504974 -0.742569 2.8 0 2.8 
z
" style="stroke: #2d746f; stroke-width: 1.2"/>
     </defs>
     <g>
      <use xlink:href="#m7b048a7be2" x="169.66551" y="54.793061" style="fill: #ffffff; stroke: #2d746f; stroke-width: 1.2"/>
     </g>
    </g>
    <g id="text_18">
     <text style="font-size: 7.8px; font-family: 'DejaVu Sans', sans-serif; text-anchor: start" x="179.80551" y="57.523061" transform="rotate(-0 179.80551 57.523061)">CTA</text>
    </g>
   </g>
  </g>
 </g>
 <defs>
  <clipPath id="p36f2e7ab10">
   <rect x="57.888" y="52.92" width="178.488" height="75.852"/>
  </clipPath>
 </defs>
</svg>
