<?xml version="1.0" encoding="utf-8" standalone="no"?>
<!DOCTYPE svg PUBLIC "-//W3C//DTD SVG 1.1//EN"
  "http://www.w3.org/Graphics/SVG/1.1/DTD/svg11.dtd">
<svg xmlns:xlink="http://www.w3.org/1999/xlink" width="243.051185pt" height="190.7712pt" viewBox="0 0 243.051185 190.7712" xmlns="http://www.w3.org/2000/svg" version="1.1">
 <metadata>
  <rdf:RDF xmlns:dc="http://purl.org/dc/elements/1.1/" xmlns:cc="http://creativecommons.org/ns#" xmlns:rdf="http://www.w3.org/1999/02/22-rdf-syntax-ns#">
   <cc:Work>
    <dc:type rdf:resource="http://purl.org/dc/dcmitype/StillImage"/>
    <dc:date>2026-07-27T20:34:34.079183</dc:date>
    <dc:format>image/svg+xml</dc:format>
    <dc:creator>
     <cc:Agent>
      <dc:title>Matplotlib v3.11.1, https://matplotlib.org/</dc:title>
     </cc:Agent>
    </dc:creator>
   </cc:Work>
  </rdf:RDF>
 </metadata>
 <defs>
  <style type="text/css">*{stroke-linejoin: round; stroke-linecap: butt}</style>
 </defs>
 <g id="figure_1">
  <g id="patch_1">
   <path d="M 0 190.7712
L 243.051185 190.7712
L 243.051185 0
L 0 0
z
" style="fill: #fcfbf7"/>
  </g>
  <g id="axes_1">
   <g id="patch_2">
    <path d="M 1.8 188.9712
L 237.4524 188.9712
L 237.4524 1.8
L 1.8 1.8
z
" style="fill: #fcfbf7"/>
   </g>
   <g id="patch_3">
    <path d="M 109.728799 30.595569
C 105.487056 49.792615 113.499238 68.989662 109.728799 88.186708
C 105.487056 107.383754 113.499238 136.179323 108.314885 161.375446
L 130.937515 161.375446
C 125.753162 136.179323 133.765344 107.383754 129.523601 88.186708
C 125.753162 68.989662 133.765344 49.792615 129.523601 30.595569
z
" clip-path="url(#p3b0da2334a)" style="fill: #e6eef1; opacity: 0.92; stroke: #6e91a6; stroke-width: 0.75; stroke-linejoin: miter"/>
   </g>
   <g id="line2d_1">
    <path d="M 12.64001 75.708628
L 226.61239 75.708628
" clip-path="url(#p3b0da2334a)" style="fill: none; stroke: #bcc4c5; stroke-width: 0.55; stroke-linecap: square"/>
   </g>
   <g id="patch_4">
    <path d="M 56.818793 44.946924
Q 118.835891 43.638016 177.877377 58.620744
" clip-path="url(#p3b0da2334a)" style="fill: none; opacity: 0.75; stroke: #d8584b; stroke-linecap: round"/>
    <path d="M 175.846275 56.867283
L 177.877377 58.620744
L 175.255948 59.193549
z
" clip-path="url(#p3b0da2334a)" style="fill: #d8584b; opacity: 0.75; stroke: #d8584b; stroke-linecap: round"/>
   </g>
   <g id="patch_5">
    <path d="M 72.047327 58.79002
Q 116.753229 44.863387 162.459924 44.979061
" clip-path="url(#p3b0da2334a)" style="fill: none; opacity: 0.75; stroke: #2c8076; stroke-linecap: round"/>
    <path d="M 160.062969 43.772991
L 162.459924 44.979061
L 160.056895 46.172984
z
" clip-path="url(#p3b0da2334a)" style="fill: #2c8076; opacity: 0.75; stroke: #2c8076; stroke-linecap: round"/>
   </g>
   <g id="matplotlib.axis_1"/>
   <g id="matplotlib.axis_2"/>
   <g id="line2d_2">
    <path d="M 150.261012 100.904751
L 187.494091 95.865526
" clip-path="url(#p3b0da2334a)" style="fill: none; stroke: #d8584b; stroke-opacity: 0.45; stroke-width: 0.9; stroke-linecap: square"/>
   </g>
   <g id="line2d_3">
    <path d="M 13.111315 167.13456
L 226.141085 167.13456
" clip-path="url(#p3b0da2334a)" style="fill: none; stroke: #bcc4c5; stroke-width: 0.55; stroke-linecap: square"/>
   </g>
   <g id="text_1">
    <text style="font-weight: 700; font-size: 7px; font-family: 'DejaVu Sans', sans-serif; text-anchor: middle; fill: #29343a" x="119.6262" y="12.63751" transform="rotate(-0 119.6262 12.63751)">A NEW WINNER IS NOT A NEW REFERENT</text>
   </g>
   <g id="text_2">
    <!-- $S_0$  BEFORE -->
    <g style="fill: #29343a" transform="translate(36.324223 25.279337)">
     <text>
      <tspan x="0" y="-0" style="font-style: oblique; font-size: 5.4px; font-family: 'DejaVu Sans'; fill: #29343a">S</tspan>
      <tspan x="3.421783" y="0.809997" style="font-size: 3.78px; font-family: 'DejaVu Sans'; fill: #29343a">0</tspan>
      <tspan x="5.970221" y="-0" style="font-weight: 700; font-size: 5.4px; font-family: 'DejaVu Sans'; fill: #29343a"> </tspan>
      <tspan x="7.846945" y="-0" style="font-weight: 700; font-size: 5.4px; font-family: 'DejaVu Sans'; fill: #29343a"> </tspan>
      <tspan x="9.723669" y="-0" style="font-weight: 700; font-size: 5.4px; font-family: 'DejaVu Sans'; fill: #29343a">B</tspan>
      <tspan x="13.832449" y="-0" style="font-weight: 700; font-size: 5.4px; font-family: 'DejaVu Sans'; fill: #29343a">E</tspan>
      <tspan x="17.514822" y="-0" style="font-weight: 700; font-size: 5.4px; font-family: 'DejaVu Sans'; fill: #29343a">F</tspan>
      <tspan x="21.197195" y="-0" style="font-weight: 700; font-size: 5.4px; font-family: 'DejaVu Sans'; fill: #29343a">O</tspan>
      <tspan x="25.779761" y="-0" style="font-weight: 700; font-size: 5.4px; font-family: 'DejaVu Sans'; fill: #29343a">R</tspan>
      <tspan x="29.930655" y="-0" style="font-weight: 700; font-size: 5.4px; font-family: 'DejaVu Sans'; fill: #29343a">E</tspan>
     </text>
    </g>
   </g>
   <g id="text_3">
    <!-- $S_1$  AFTER -->
    <g style="fill: #29343a" transform="translate(171.500177 25.279337)">
     <text>
      <tspan x="0" y="-0" style="font-style: oblique; font-size: 5.4px; font-family: 'DejaVu Sans'; fill: #29343a">S</tspan>
      <tspan x="3.421783" y="0.809997" style="font-size: 3.78px; font-family: 'DejaVu Sans'; fill: #29343a">1</tspan>
      <tspan x="5.970221" y="-0" style="font-weight: 700; font-size: 5.4px; font-family: 'DejaVu Sans'; fill: #29343a"> </tspan>
      <tspan x="7.846945" y="-0" style="font-weight: 700; font-size: 5.4px; font-family: 'DejaVu Sans'; fill: #29343a"> </tspan>
      <tspan x="9.723669" y="-0" style="font-weight: 700; font-size: 5.4px; font-family: 'DejaVu Sans'; fill: #29343a">A</tspan>
      <tspan x="13.895621" y="-0" style="font-weight: 700; font-size: 5.4px; font-family: 'DejaVu Sans'; fill: #29343a">F</tspan>
      <tspan x="17.577994" y="-0" style="font-weight: 700; font-size: 5.4px; font-family: 'DejaVu Sans'; fill: #29343a">T</tspan>
      <tspan x="21.255103" y="-0" style="font-weight: 700; font-size: 5.4px; font-family: 'DejaVu Sans'; fill: #29343a">E</tspan>
      <tspan x="24.937476" y="-0" style="font-weight: 700; font-size: 5.4px; font-family: 'DejaVu Sans'; fill: #29343a">R</tspan>
     </text>
    </g>
   </g>
   <g id="text_4">
    <!-- $q(S_0)$ -->
    <g style="fill: #d8584b" transform="translate(39.777651 34.673585)">
     <text>
      <tspan x="0" y="-0.203125" style="font-style: oblique; font-size: 5px; font-family: 'DejaVu Sans'; fill: #d8584b">q</tspan>
      <tspan x="5.124512" y="-0.203125" style="font-style: oblique; font-size: 5px; font-family: 'DejaVu Sans'; fill: #d8584b">S</tspan>
      <tspan x="3.173828" y="-0.203125" style="font-size: 5px; font-family: 'DejaVu Sans'; fill: #d8584b">(</tspan>
      <tspan x="10.661865" y="-0.203125" style="font-size: 5px; font-family: 'DejaVu Sans'; fill: #d8584b">)</tspan>
      <tspan x="8.29834" y="0.546873" style="font-size: 3.5px; font-family: 'DejaVu Sans'; fill: #d8584b">0</tspan>
     </text>
    </g>
   </g>
   <g id="text_5">
    <!-- $q(S_1)$ -->
    <g style="fill: #2c8076" transform="translate(170.329081 34.673585)">
     <text>
      <tspan x="0" y="-0.203125" style="font-style: oblique; font-size: 5px; font-family: 'DejaVu Sans'; fill: #2c8076">q</tspan>
      <tspan x="5.124512" y="-0.203125" style="font-style: oblique; font-size: 5px; font-family: 'DejaVu Sans'; fill: #2c8076">S</tspan>
      <tspan x="3.173828" y="-0.203125" style="font-size: 5px; font-family: 'DejaVu Sans'; fill: #2c8076">(</tspan>
      <tspan x="10.661865" y="-0.203125" style="font-size: 5px; font-family: 'DejaVu Sans'; fill: #2c8076">)</tspan>
      <tspan x="8.29834" y="0.546873" style="font-size: 3.5px; font-family: 'DejaVu Sans'; fill: #2c8076">1</tspan>
     </text>
    </g>
   </g>
   <g id="text_6">
    <text style="font-size: 4.8px; font-family: 'DejaVu Sans', sans-serif; text-anchor: middle; fill: #758187" x="193.149749" y="71.917022" transform="rotate(-0 193.149749 71.917022)">A remains valid</text>
   </g>
   <g id="text_7">
    <text style="font-weight: 700; font-size: 5.2px; font-family: 'DejaVu Sans', sans-serif; text-anchor: start; fill: #758187" x="13.111315" y="69.660147" transform="rotate(-0 13.111315 69.660147)">IDENTITY THREAD</text>
   </g>
   <g id="text_8">
    <text style="font-weight: 700; font-size: 6.1px; font-family: 'DejaVu Sans', sans-serif; text-anchor: start; fill: #d8584b" x="13.111315" y="98.649912" transform="rotate(-0 13.111315 98.649912)">PRESERVE</text>
   </g>
   <g id="text_9">
    <text style="font-size: 4.9px; font-family: 'DejaVu Sans', sans-serif; text-anchor: start; fill: #758187" x="13.111315" y="106.737092" transform="rotate(-0 13.111315 106.737092)">resolve before</text>
   </g>
   <g id="text_10">
    <!-- $B(A)$ -->
    <g style="fill: #d8584b" transform="translate(54.841795 116.462942)">
     <text>
      <tspan x="0" y="-0.203125" style="font-style: oblique; font-size: 5px; font-family: 'DejaVu Sans'; fill: #d8584b">B</tspan>
      <tspan x="5.380859" y="-0.203125" style="font-style: oblique; font-size: 5px; font-family: 'DejaVu Sans'; fill: #d8584b">A</tspan>
      <tspan x="3.430176" y="-0.203125" style="font-size: 5px; font-family: 'DejaVu Sans'; fill: #d8584b">(</tspan>
      <tspan x="8.80127" y="-0.203125" style="font-size: 5px; font-family: 'DejaVu Sans'; fill: #d8584b">)</tspan>
     </text>
    </g>
   </g>
   <g id="line2d_4">
    <path d="M 67.54702 100.904751
L 147.433183 100.904751
" clip-path="url(#p3b0da2334a)" style="fill: none; stroke: #d8584b; stroke-width: 2; stroke-linecap: round"/>
   </g>
   <g id="text_11">
    <!-- re-run $q$ -->
    <g style="fill: #a83d4d" transform="translate(138.53125 90.607422)">
     <text>
      <tspan x="0" y="-0.375" style="font-weight: 700; font-size: 4.7px; font-family: 'DejaVu Sans'; fill: #a83d4d">r</tspan>
      <tspan x="2.311707" y="-0.375" style="font-weight: 700; font-size: 4.7px; font-family: 'DejaVu Sans'; fill: #a83d4d">e</tspan>
      <tspan x="5.490875" y="-0.375" style="font-weight: 700; font-size: 4.7px; font-family: 'DejaVu Sans'; fill: #a83d4d">-</tspan>
      <tspan x="7.436371" y="-0.375" style="font-weight: 700; font-size: 4.7px; font-family: 'DejaVu Sans'; fill: #a83d4d">r</tspan>
      <tspan x="9.748077" y="-0.375" style="font-weight: 700; font-size: 4.7px; font-family: 'DejaVu Sans'; fill: #a83d4d">u</tspan>
      <tspan x="13.085175" y="-0.375" style="font-weight: 700; font-size: 4.7px; font-family: 'DejaVu Sans'; fill: #a83d4d">n</tspan>
      <tspan x="16.422272" y="-0.375" style="font-weight: 700; font-size: 4.7px; font-family: 'DejaVu Sans'; fill: #a83d4d"> </tspan>
      <tspan x="18.054199" y="-0.375" style="font-style: oblique; font-size: 4.7px; font-family: 'DejaVu Sans'; fill: #a83d4d">q</tspan>
     </text>
    </g>
   </g>
   <g id="patch_6">
    <path d="M 187.494091 95.865526
Q 190.675399 95.865526 192.850475 95.865526
" clip-path="url(#p3b0da2334a)" style="fill: none; stroke: #d8584b; stroke-width: 0.9; stroke-linecap: round"/>
    <path d="M 190.050475 94.465526
L 192.850475 95.865526
L 190.050475 97.265526
z
" clip-path="url(#p3b0da2334a)" style="fill: #d8584b; stroke: #d8584b; stroke-width: 0.9; stroke-linecap: round"/>
   </g>
   <g id="text_12">
    <text style="font-weight: 700; font-size: 4.8px; font-family: 'DejaVu Sans', sans-serif; text-anchor: start; fill: #d8584b" x="214.358465" y="97.112589" transform="rotate(-0 214.358465 97.112589)">gold</text>
   </g>
   <g id="text_13">
    <text style="font-weight: 700; font-size: 4.7px; font-family: 'DejaVu Sans', sans-serif; text-anchor: start; fill: #a83d4d" x="220.956732" y="113.884024" transform="rotate(-0 220.956732 113.884024)">Generic</text>
   </g>
   <g id="text_14">
    <text style="font-weight: 700; font-size: 6.1px; font-family: 'DejaVu Sans', sans-serif; text-anchor: start; fill: #2c8076" x="13.111315" y="138.24382" transform="rotate(-0 13.111315 138.24382)">REEVALUATE</text>
   </g>
   <g id="text_15">
    <text style="font-size: 4.9px; font-family: 'DejaVu Sans', sans-serif; text-anchor: start; fill: #758187" x="13.111315" y="146.331" transform="rotate(-0 13.111315 146.331)">resolve after</text>
   </g>
   <g id="text_16">
    <!-- $U(q)$ -->
    <g style="fill: #2c8076" transform="translate(54.866795 156.056849)">
     <text>
      <tspan x="0" y="-0.203125" style="font-style: oblique; font-size: 5px; font-family: 'DejaVu Sans'; fill: #2c8076">U</tspan>
      <tspan x="5.610352" y="-0.203125" style="font-style: oblique; font-size: 5px; font-family: 'DejaVu Sans'; fill: #2c8076">q</tspan>
      <tspan x="3.659668" y="-0.203125" style="font-size: 5px; font-family: 'DejaVu Sans'; fill: #2c8076">(</tspan>
      <tspan x="8.78418" y="-0.203125" style="font-size: 5px; font-family: 'DejaVu Sans'; fill: #2c8076">)</tspan>
     </text>
    </g>
   </g>
   <g id="line2d_5">
    <path d="M 67.54702 140.498658
L 127.402729 140.498658
" clip-path="url(#p3b0da2334a)" style="fill: none; stroke-dasharray: 4.06,2.9; stroke-dashoffset: 0; stroke: #2c8076; stroke-width: 1.45"/>
   </g>
   <g id="text_17">
    <!-- $B(B)$ -->
    <g style="fill: #2c8076" transform="translate(142.033183 156.056849)">
     <text>
      <tspan x="0" y="-0.203125" style="font-style: oblique; font-size: 5px; font-family: 'DejaVu Sans'; fill: #2c8076">B</tspan>
      <tspan x="5.380859" y="-0.203125" style="font-style: oblique; font-size: 5px; font-family: 'DejaVu Sans'; fill: #2c8076">B</tspan>
      <tspan x="3.430176" y="-0.203125" style="font-size: 5px; font-family: 'DejaVu Sans'; fill: #2c8076">(</tspan>
      <tspan x="8.811035" y="-0.203125" style="font-size: 5px; font-family: 'DejaVu Sans'; fill: #2c8076">)</tspan>
     </text>
    </g>
   </g>
   <g id="patch_7">
    <path d="M 154.738408 140.498658
Q 174.179731 140.498658 191.888101 140.498658
" clip-path="url(#p3b0da2334a)" style="fill: none; stroke: #2c8076; stroke-width: 1.55; stroke-linecap: round"/>
    <path d="M 189.088101 139.098658
L 191.888101 140.498658
L 189.088101 141.898658
z
" clip-path="url(#p3b0da2334a)" style="fill: #2c8076; stroke: #2c8076; stroke-width: 1.55; stroke-linecap: round"/>
   </g>
   <g id="text_18">
    <text style="font-weight: 700; font-size: 4.8px; font-family: 'DejaVu Sans', sans-serif; text-anchor: start; fill: #2c8076" x="214.358465" y="141.745721" transform="rotate(-0 214.358465 141.745721)">gold</text>
   </g>
   <g id="text_19">
    <text style="font-weight: 700; font-size: 5.5px; font-family: 'DejaVu Sans', sans-serif; text-anchor: start; fill: #29343a" x="13.111315" y="176.961979" transform="rotate(-0 13.111315 176.961979)">MATCHED PAIR</text>
   </g>
   <g id="text_20">
    <!-- same $S_0\!\to\!S_1$ -->
    <g style="fill: #758187" transform="translate(63.222682 176.832096)">
     <text>
      <tspan x="0" y="-0.28125" style="font-size: 5px; font-family: 'DejaVu Sans'; fill: #758187">s</tspan>
      <tspan x="2.60498" y="-0.28125" style="font-size: 5px; font-family: 'DejaVu Sans'; fill: #758187">a</tspan>
      <tspan x="5.668945" y="-0.28125" style="font-size: 5px; font-family: 'DejaVu Sans'; fill: #758187">m</tspan>
      <tspan x="10.539551" y="-0.28125" style="font-size: 5px; font-family: 'DejaVu Sans'; fill: #758187">e</tspan>
      <tspan x="13.615723" y="-0.28125" style="font-size: 5px; font-family: 'DejaVu Sans'; fill: #758187"> </tspan>
      <tspan x="20.904769" y="-0.28125" style="font-size: 5px; font-family: 'DejaVu Sans'; fill: #758187">→</tspan>
      <tspan x="15.205078" y="-0.28125" style="font-style: oblique; font-size: 5px; font-family: 'DejaVu Sans'; fill: #758187">S</tspan>
      <tspan x="25.256559" y="-0.28125" style="font-style: oblique; font-size: 5px; font-family: 'DejaVu Sans'; fill: #758187">S</tspan>
      <tspan x="18.378906" y="0.468748" style="font-size: 3.5px; font-family: 'DejaVu Sans'; fill: #758187">0</tspan>
      <tspan x="28.430387" y="0.468748" style="font-size: 3.5px; font-family: 'DejaVu Sans'; fill: #758187">1</tspan>
     </text>
    </g>
   </g>
   <g id="text_21">
    <text style="font-weight: 700; font-size: 5px; font-family: 'DejaVu Sans', sans-serif; text-anchor: middle; fill: #29343a" x="138.478392" y="176.832291" transform="rotate(-0 138.478392 176.832291)">only resolution time changes</text>
   </g>
   <g id="text_22">
    <text style="font-size: 5px; font-family: 'DejaVu Sans', sans-serif; text-anchor: middle; fill: #758187" x="207.288893" y="176.832291" transform="rotate(-0 207.288893 176.832291)">gold A / B</text>
   </g>
   <g id="patch_8">
    <path d="M 173.628768 52.926487
Q 155.607888 72.305367 148.703001 96.808038
" clip-path="url(#p3b0da2334a)" style="fill: none; stroke-dasharray: 2.16,1.8; stroke-dashoffset: 0; stroke: #a83d4d; stroke-width: 0.9; stroke-linecap: round"/>
    <path d="M 150.508986 94.823493
L 148.703001 96.808038
L 148.198956 94.172524
z
" clip-path="url(#p3b0da2334a)" style="fill: #a83d4d; stroke-dasharray: 2.16,1.8; stroke-dashoffset: 0; stroke: #a83d4d; stroke-width: 0.9; stroke-linecap: round"/>
   </g>
   <g id="patch_9">
    <path d="M 152.087374 103.165659
Q 170.997907 111.474677 190.228668 112.499243
" clip-path="url(#p3b0da2334a)" style="fill: none; stroke-dasharray: 3.75,2.25; stroke-dashoffset: 0; stroke: #a83d4d; stroke-width: 1.25; stroke-linecap: round"/>
    <path d="M 187.507117 110.95226
L 190.228668 112.499243
L 187.358151 113.748295
z
" clip-path="url(#p3b0da2334a)" style="fill: #a83d4d; stroke-dasharray: 3.75,2.25; stroke-dashoffset: 0; stroke: #a83d4d; stroke-width: 1.25; stroke-linecap: round"/>
   </g>
   <g id="patch_10">
    <path d="M 38.561774 51.112412
L 53.643528 51.112412
Q 54.939616 51.112412 54.939616 49.792615
L 54.939616 40.194092
Q 54.939616 38.874295 53.643528 38.874295
L 38.561774 38.874295
Q 37.265686 38.874295 37.265686 40.194092
L 37.265686 49.792615
Q 37.265686 51.112412 38.561774 51.112412
z
" clip-path="url(#p3b0da2334a)" style="fill: #f8e4de; stroke: #d8584b; stroke-width: 0.9; stroke-linejoin: miter"/>
   </g>
   <g id="patch_11">
    <path d="M 55.057442 65.510197
L 70.139196 65.510197
Q 71.435284 65.510197 71.435284 64.1904
L 71.435284 54.591877
Q 71.435284 53.27208 70.139196 53.27208
L 55.057442 53.27208
Q 53.761354 53.27208 53.761354 54.591877
L 53.761354 64.1904
Q 53.761354 65.510197 55.057442 65.510197
z
" clip-path="url(#p3b0da2334a)" style="fill: #fcfbf7; stroke: #2c8076; stroke-width: 0.9; stroke-linejoin: miter"/>
   </g>
   <g id="patch_12">
    <path d="M 169.113204 51.112412
L 184.194958 51.112412
Q 185.491046 51.112412 185.491046 49.792615
L 185.491046 40.194092
Q 185.491046 38.874295 184.194958 38.874295
L 169.113204 38.874295
Q 167.817116 38.874295 167.817116 40.194092
L 167.817116 49.792615
Q 167.817116 51.112412 169.113204 51.112412
z
" clip-path="url(#p3b0da2334a)" style="fill: #ddede8; stroke: #2c8076; stroke-width: 0.9; stroke-linejoin: miter"/>
   </g>
   <g id="patch_13">
    <path d="M 185.608872 65.510197
L 200.690626 65.510197
Q 201.986714 65.510197 201.986714 64.1904
L 201.986714 54.591877
Q 201.986714 53.27208 200.690626 53.27208
L 185.608872 53.27208
Q 184.312784 53.27208 184.312784 54.591877
L 184.312784 64.1904
Q 184.312784 65.510197 185.608872 65.510197
z
" clip-path="url(#p3b0da2334a)" style="fill: #fcfbf7; stroke: #d8584b; stroke-width: 0.9; stroke-linejoin: miter"/>
   </g>
   <g id="patch_14">
    <path d="M 60.241795 108.343606
C 62.179163 108.343606 64.037443 107.559801 65.407369 106.164816
C 66.777295 104.76983 67.54702 102.877558 67.54702 100.904751
C 67.54702 98.931943 66.777295 97.039671 65.407369 95.644686
C 64.037443 94.2497 62.179163 93.465895 60.241795 93.465895
C 58.304427 93.465895 56.446148 94.2497 55.076221 95.644686
C 53.706295 97.039671 52.936571 98.931943 52.936571 100.904751
C 52.936571 102.877558 53.706295 104.76983 55.076221 106.164816
C 56.446148 107.559801 58.304427 108.343606 60.241795 108.343606
z
" clip-path="url(#p3b0da2334a)" style="fill: #fcfbf7; stroke: #d8584b; stroke-linejoin: miter"/>
   </g>
   <g id="patch_15">
    <path d="M 197.038013 101.62464
L 210.941505 101.62464
Q 212.237593 101.62464 212.237593 100.304843
L 212.237593 91.426209
Q 212.237593 90.106412 210.941505 90.106412
L 197.038013 90.106412
Q 195.741925 90.106412 195.741925 91.426209
L 195.741925 100.304843
Q 195.741925 101.62464 197.038013 101.62464
z
" clip-path="url(#p3b0da2334a)" style="fill: #fcfbf7; stroke: #d8584b; stroke-width: 0.9; stroke-linejoin: miter"/>
   </g>
   <g id="patch_16">
    <path d="M 197.038013 118.422055
L 210.941505 118.422055
Q 212.237593 118.422055 212.237593 117.102258
L 212.237593 108.223625
Q 212.237593 106.903828 210.941505 106.903828
L 197.038013 106.903828
Q 195.741925 106.903828 195.741925 108.223625
L 195.741925 117.102258
Q 195.741925 118.422055 197.038013 118.422055
z
" clip-path="url(#p3b0da2334a)" style="fill: #f4e3e6; stroke: #a83d4d; stroke-width: 0.9; stroke-linejoin: miter"/>
   </g>
   <g id="patch_17">
    <path d="M 60.241795 147.937514
C 62.179163 147.937514 64.037443 147.153709 65.407369 145.758724
C 66.777295 144.363738 67.54702 142.471466 67.54702 140.498658
C 67.54702 138.525851 66.777295 136.633579 65.407369 135.238593
C 64.037443 133.843608 62.179163 133.059803 60.241795 133.059803
C 58.304427 133.059803 56.446148 133.843608 55.076221 135.238593
C 53.706295 136.633579 52.936571 138.525851 52.936571 140.498658
C 52.936571 142.471466 53.706295 144.363738 55.076221 145.758724
C 56.446148 147.153709 58.304427 147.937514 60.241795 147.937514
z
" clip-path="url(#p3b0da2334a)" style="fill: #fcfbf7; stroke: #2c8076; stroke-linejoin: miter"/>
   </g>
   <g id="patch_18">
    <path d="M 147.433183 147.937514
C 149.370551 147.937514 151.228831 147.153709 152.598757 145.758724
C 153.968683 144.363738 154.738408 142.471466 154.738408 140.498658
C 154.738408 138.525851 153.968683 136.633579 152.598757 135.238593
C 151.228831 133.843608 149.370551 133.059803 147.433183 133.059803
C 145.495815 133.059803 143.637536 133.843608 142.267609 135.238593
C 140.897683 136.633579 140.127959 138.525851 140.127959 140.498658
C 140.127959 142.471466 140.897683 144.363738 142.267609 145.758724
C 143.637536 147.153709 145.495815 147.937514 147.433183 147.937514
z
" clip-path="url(#p3b0da2334a)" style="fill: #fcfbf7; stroke: #2c8076; stroke-linejoin: miter"/>
   </g>
   <g id="patch_19">
    <path d="M 197.038013 146.257772
L 210.941505 146.257772
Q 212.237593 146.257772 212.237593 144.937975
L 212.237593 136.059342
Q 212.237593 134.739545 210.941505 134.739545
L 197.038013 134.739545
Q 195.741925 134.739545 195.741925 136.059342
L 195.741925 144.937975
Q 195.741925 146.257772 197.038013 146.257772
z
" clip-path="url(#p3b0da2334a)" style="fill: #ddede8; stroke: #2c8076; stroke-width: 0.9; stroke-linejoin: miter"/>
   </g>
   <g id="line2d_6">
    <path d="M 38.561774 40.434055
L 46.102651 46.433132
L 53.643528 40.434055
" clip-path="url(#p3b0da2334a)" style="fill: none; stroke: #d8584b; stroke-width: 0.62; stroke-linecap: square"/>
   </g>
   <g id="line2d_7">
    <path d="M 55.057442 54.83184
L 62.598319 60.830917
L 70.139196 54.83184
" clip-path="url(#p3b0da2334a)" style="fill: none; stroke: #2c8076; stroke-width: 0.62; stroke-linecap: square"/>
   </g>
   <g id="line2d_8">
    <path d="M 169.113204 40.434055
L 176.654081 46.433132
L 184.194958 40.434055
" clip-path="url(#p3b0da2334a)" style="fill: none; stroke: #2c8076; stroke-width: 0.62; stroke-linecap: square"/>
   </g>
   <g id="line2d_9">
    <path d="M 185.608872 54.83184
L 193.149749 60.830917
L 200.690626 54.83184
" clip-path="url(#p3b0da2334a)" style="fill: none; stroke: #d8584b; stroke-width: 0.62; stroke-linecap: square"/>
   </g>
   <g id="patch_20">
    <path d="M 60.241795 106.423902
C 61.679197 106.423902 63.057921 105.842369 64.074318 104.80738
C 65.090714 103.77239 65.6618 102.368447 65.6618 100.904751
C 65.6618 99.441055 65.090714 98.037111 64.074318 97.002122
C 63.057921 95.967133 61.679197 95.3856 60.241795 95.3856
C 58.804393 95.3856 57.42567 95.967133 56.409273 97.002122
C 55.392876 98.037111 54.82179 99.441055 54.82179 100.904751
C 54.82179 102.368447 55.392876 103.77239 56.409273 104.80738
C 57.42567 105.842369 58.804393 106.423902 60.241795 106.423902
L 60.241795 106.423902
z
" clip-path="url(#p3b0da2334a)" style="fill: none; stroke-dasharray: 0.825,0.715; stroke-dashoffset: 0; stroke: #d8584b; stroke-width: 0.55; stroke-linejoin: miter"/>
   </g>
   <g id="line2d_10">
    <path d="M 197.038013 91.666172
L 203.989759 96.94536
L 210.941505 91.666172
" clip-path="url(#p3b0da2334a)" style="fill: none; stroke: #d8584b; stroke-width: 0.62; stroke-linecap: square"/>
   </g>
   <g id="line2d_11">
    <path d="M 197.038013 108.463588
L 203.989759 113.742775
L 210.941505 108.463588
" clip-path="url(#p3b0da2334a)" style="fill: none; stroke: #a83d4d; stroke-width: 0.62; stroke-linecap: square"/>
   </g>
   <g id="patch_21">
    <path d="M 60.241795 146.017809
C 61.679197 146.017809 63.057921 145.436277 64.074318 144.401287
C 65.090714 143.366298 65.6618 141.962354 65.6618 140.498658
C 65.6618 139.034963 65.090714 137.631019 64.074318 136.59603
C 63.057921 135.56104 61.679197 134.979508 60.241795 134.979508
C 58.804393 134.979508 57.42567 135.56104 56.409273 136.59603
C 55.392876 137.631019 54.82179 139.034963 54.82179 140.498658
C 54.82179 141.962354 55.392876 143.366298 56.409273 144.401287
C 57.42567 145.436277 58.804393 146.017809 60.241795 146.017809
L 60.241795 146.017809
z
" clip-path="url(#p3b0da2334a)" style="fill: none; stroke-dasharray: 0.825,0.715; stroke-dashoffset: 0; stroke: #2c8076; stroke-width: 0.55; stroke-linejoin: miter"/>
   </g>
   <g id="patch_22">
    <path d="M 147.433183 146.017809
C 148.870585 146.017809 150.249309 145.436277 151.265706 144.401287
C 152.282102 143.366298 152.853188 141.962354 152.853188 140.498658
C 152.853188 139.034963 152.282102 137.631019 151.265706 136.59603
C 150.249309 135.56104 148.870585 134.979508 147.433183 134.979508
C 145.995781 134.979508 144.617058 135.56104 143.600661 136.59603
C 142.584264 137.631019 142.013178 139.034963 142.013178 140.498658
C 142.013178 141.962354 142.584264 143.366298 143.600661 144.401287
C 144.617058 145.436277 145.995781 146.017809 147.433183 146.017809
L 147.433183 146.017809
z
" clip-path="url(#p3b0da2334a)" style="fill: none; stroke-dasharray: 0.825,0.715; stroke-dashoffset: 0; stroke: #2c8076; stroke-width: 0.55; stroke-linejoin: miter"/>
   </g>
   <g id="line2d_12">
    <path d="M 197.038013 136.299305
L 203.989759 141.578492
L 210.941505 136.299305
" clip-path="url(#p3b0da2334a)" style="fill: none; stroke: #2c8076; stroke-width: 0.62; stroke-linecap: square"/>
   </g>
   <g id="PathCollection_1">
    <defs>
     <path id="md21ad07049" d="M 0 2.5
C 0.663008 2.5 1.29895 2.236584 1.767767 1.767767
C 2.236584 1.29895 2.5 0.663008 2.5 0
C 2.5 -0.663008 2.236584 -1.29895 1.767767 -1.767767
C 1.29895 -2.236584 0.663008 -2.5 0 -2.5
C -0.663008 -2.5 -1.29895 -2.236584 -1.767767 -1.767767
C -2.236584 -1.29895 -2.5 -0.663008 -2.5 0
C -2.5 0.663008 -2.236584 1.29895 -1.767767 1.767767
C -1.29895 2.236584 -0.663008 2.5 0 2.5
z
" style="stroke: #fcfbf7; stroke-width: 0.45"/>
    </defs>
    <g clip-path="url(#p3b0da2334a)">
     <use xlink:href="#md21ad07049" x="46.102651" y="44.993354" style="fill: #d8584b; stroke: #fcfbf7; stroke-width: 0.45"/>
    </g>
   </g>
   <g id="PathCollection_2">
    <defs>
     <path id="md4c41f687c" d="M -2.5 2.5
L 2.5 2.5
L 2.5 -2.5
L -2.5 -2.5
z
" style="stroke: #fcfbf7; stroke-width: 0.45"/>
    </defs>
    <g clip-path="url(#p3b0da2334a)">
     <use xlink:href="#md4c41f687c" x="62.598319" y="59.391138" style="fill: #2c8076; stroke: #fcfbf7; stroke-width: 0.45"/>
    </g>
   </g>
   <g id="PathCollection_3">
    <g clip-path="url(#p3b0da2334a)">
     <use xlink:href="#md4c41f687c" x="176.654081" y="44.993354" style="fill: #2c8076; stroke: #fcfbf7; stroke-width: 0.45"/>
    </g>
   </g>
   <g id="PathCollection_4">
    <g clip-path="url(#p3b0da2334a)">
     <use xlink:href="#md21ad07049" x="193.149749" y="59.391138" style="fill: #d8584b; stroke: #fcfbf7; stroke-width: 0.45"/>
    </g>
   </g>
   <g id="PathCollection_5">
    <defs>
     <path id="mc62726a8a1" d="M 0 3
C 0.795609 3 1.55874 2.683901 2.12132 2.12132
C 2.683901 1.55874 3 0.795609 3 0
C 3 -0.795609 2.683901 -1.55874 2.12132 -2.12132
C 1.55874 -2.683901 0.795609 -3 0 -3
C -0.795609 -3 -1.55874 -2.683901 -2.12132 -2.12132
C -2.683901 -1.55874 -3 -0.795609 -3 0
C -3 0.795609 -2.683901 1.55874 -2.12132 2.12132
C -1.55874 2.683901 -0.795609 3 0 3
z
" style="stroke: #d8584b; stroke-width: 0.7"/>
    </defs>
    <g clip-path="url(#p3b0da2334a)">
     <use xlink:href="#mc62726a8a1" x="60.241795" y="100.904751" style="fill: #d8584b; stroke: #d8584b; stroke-width: 0.7"/>
    </g>
   </g>
   <g id="PathCollection_6">
    <defs>
     <path id="mede841e9f0" d="M -1.47902 2.95804
L 0 1.47902
L 1.47902 2.95804
L 2.95804 1.47902
L 1.47902 0
L 2.95804 -1.47902
L 1.47902 -2.95804
L 0 -1.47902
L -1.47902 -2.95804
L -2.95804 -1.47902
L -1.47902 0
L -2.95804 1.47902
z
" style="stroke: #a83d4d; stroke-width: 0.7"/>
    </defs>
    <g clip-path="url(#p3b0da2334a)">
     <use xlink:href="#mede841e9f0" x="148.375793" y="100.904751" style="fill: #e5ad45; stroke: #a83d4d; stroke-width: 0.7"/>
    </g>
   </g>
   <g id="PathCollection_7">
    <g clip-path="url(#p3b0da2334a)">
     <use xlink:href="#md21ad07049" x="203.989759" y="95.865526" style="fill: #d8584b; stroke: #fcfbf7; stroke-width: 0.45"/>
    </g>
   </g>
   <g id="PathCollection_8">
    <defs>
     <path id="m82ec8dfd8e" d="M -2.5 2.5
L 2.5 2.5
L 2.5 -2.5
L -2.5 -2.5
z
" style="stroke: #fcfbf7; stroke-width: 0.45"/>
    </defs>
    <g clip-path="url(#p3b0da2334a)">
     <use xlink:href="#m82ec8dfd8e" x="203.989759" y="112.662942" style="fill: #a83d4d; stroke: #fcfbf7; stroke-width: 0.45"/>
    </g>
   </g>
   <g id="PathCollection_9">
    <defs>
     <path id="m8c2c540feb" d="M -0 4.242641
L 4.242641 0
L 0 -4.242641
L -4.242641 -0
z
" style="stroke: #2c8076; stroke-width: 0.7"/>
    </defs>
    <g clip-path="url(#p3b0da2334a)">
     <use xlink:href="#m8c2c540feb" x="60.241795" y="140.498658" style="fill: #fcfbf7; stroke: #2c8076; stroke-width: 0.7"/>
    </g>
   </g>
   <g id="PathCollection_10">
    <defs>
     <path id="ma19de7700c" d="M -3 3
L 3 3
L 3 -3
L -3 -3
z
" style="stroke: #2c8076; stroke-width: 0.7"/>
    </defs>
    <g clip-path="url(#p3b0da2334a)">
     <use xlink:href="#ma19de7700c" x="147.433183" y="140.498658" style="fill: #2c8076; stroke: #2c8076; stroke-width: 0.7"/>
    </g>
   </g>
   <g id="PathCollection_11">
    <g clip-path="url(#p3b0da2334a)">
     <use xlink:href="#md4c41f687c" x="203.989759" y="140.498658" style="fill: #2c8076; stroke: #fcfbf7; stroke-width: 0.45"/>
    </g>
   </g>
   <g id="text_23">
    <text style="font-weight: 700; font-size: 4.7px; font-family: 'DejaVu Sans', sans-serif; text-anchor: middle; fill: #ffffff" x="46.102651" y="46.214252" transform="rotate(-0 46.102651 46.214252)">A</text>
   </g>
   <g id="text_24">
    <text style="font-weight: 700; font-size: 4.7px; font-family: 'DejaVu Sans', sans-serif; text-anchor: middle; fill: #ffffff" x="62.598319" y="60.612037" transform="rotate(-0 62.598319 60.612037)">B</text>
   </g>
   <g id="text_25">
    <text style="font-weight: 700; font-size: 4.7px; font-family: 'DejaVu Sans', sans-serif; text-anchor: middle; fill: #ffffff" x="176.654081" y="46.214252" transform="rotate(-0 176.654081 46.214252)">B</text>
   </g>
   <g id="text_26">
    <text style="font-weight: 700; font-size: 4.7px; font-family: 'DejaVu Sans', sans-serif; text-anchor: middle; fill: #ffffff" x="193.149749" y="60.612037" transform="rotate(-0 193.149749 60.612037)">A</text>
   </g>
   <g id="text_27">
    <text style="font-weight: 700; font-size: 5.2px; font-family: 'DejaVu Sans', sans-serif; text-anchor: middle; fill: #ffffff" x="60.241795" y="102.255532" transform="rotate(-0 60.241795 102.255532)">A</text>
   </g>
   <g id="text_28">
    <text style="font-weight: 700; font-size: 4.7px; font-family: 'DejaVu Sans', sans-serif; text-anchor: middle; fill: #ffffff" x="203.989759" y="97.086425" transform="rotate(-0 203.989759 97.086425)">A</text>
   </g>
   <g id="text_29">
    <text style="font-weight: 700; font-size: 4.7px; font-family: 'DejaVu Sans', sans-serif; text-anchor: middle; fill: #ffffff" x="203.989759" y="113.88384" transform="rotate(-0 203.989759 113.88384)">B</text>
   </g>
   <g id="PathCollection_12">
    <defs>
     <path id="mf7597ac406" d="M -1.369306 2.738613
L 0 1.369306
L 1.369306 2.738613
L 2.738613 1.369306
L 1.369306 0
L 2.738613 -1.369306
L 1.369306 -2.738613
L 0 -1.369306
L -1.369306 -2.738613
L -2.738613 -1.369306
L -1.369306 0
L -2.738613 1.369306
z
" style="stroke: #fcfbf7; stroke-width: 0.55"/>
    </defs>
    <g clip-path="url(#p3b0da2334a)">
     <use xlink:href="#mf7597ac406" x="215.065422" y="112.662942" style="fill: #a83d4d; stroke: #fcfbf7; stroke-width: 0.55"/>
    </g>
   </g>
   <g id="text_30">
    <text style="font-weight: 700; font-size: 5.2px; font-family: 'DejaVu Sans', sans-serif; text-anchor: middle; fill: #2c8076" x="60.241795" y="141.84944" transform="rotate(-0 60.241795 141.84944)">q</text>
   </g>
   <g id="text_31">
    <text style="font-weight: 700; font-size: 5.2px; font-family: 'DejaVu Sans', sans-serif; text-anchor: middle; fill: #ffffff" x="147.433183" y="141.84944" transform="rotate(-0 147.433183 141.84944)">B</text>
   </g>
   <g id="text_32">
    <text style="font-weight: 700; font-size: 4.7px; font-family: 'DejaVu Sans', sans-serif; text-anchor: middle; fill: #ffffff" x="203.989759" y="141.719557" transform="rotate(-0 203.989759 141.719557)">B</text>
   </g>
   <g id="PathCollection_13">
    <defs>
     <path id="m550de85d5f" d="M 0 -2.645751
L -0.594008 -0.817582
L -2.516259 -0.817582
L -0.961125 0.312289
L -1.555134 2.140458
L -0 1.010587
L 1.555134 2.140458
L 0.961125 0.312289
L 2.516259 -0.817582
L 0.594008 -0.817582
z
" style="stroke: #29343a; stroke-width: 0.4"/>
    </defs>
    <g clip-path="url(#p3b0da2334a)">
     <use xlink:href="#m550de85d5f" x="53.39845" y="39.349422" style="fill: #e5ad45; stroke: #29343a; stroke-width: 0.4"/>
    </g>
   </g>
   <g id="PathCollection_14">
    <g clip-path="url(#p3b0da2334a)">
     <use xlink:href="#m550de85d5f" x="183.949879" y="39.349422" style="fill: #e5ad45; stroke: #29343a; stroke-width: 0.4"/>
    </g>
   </g>
   <g id="patch_23">
    <path d="M 108.079232 33.715089
L 131.173168 33.715089
Q 136.35752 33.715089 136.35752 28.435902
L 136.35752 27.236086
Q 136.35752 21.956898 131.173168 21.956898
L 108.079232 21.956898
Q 102.89488 21.956898 102.89488 27.236086
L 102.89488 28.435902
Q 102.89488 33.715089 108.079232 33.715089
z
" clip-path="url(#p3b0da2334a)" style="fill: #6e91a6; stroke: #6e91a6; stroke-width: 0.6; stroke-linejoin: miter"/>
   </g>
   <g id="text_33">
    <text style="font-weight: 700; font-size: 5.6px; font-family: 'DejaVu Sans', sans-serif; text-anchor: middle; fill: #ffffff" x="119.6262" y="29.290681" transform="rotate(-0 119.6262 29.290681)">REFRESH</text>
   </g>
  </g>
 </g>
 <defs>
  <clipPath id="p3b0da2334a">
   <rect x="1.8" y="1.8" width="235.6524" height="187.1712"/>
  </clipPath>
 </defs>
</svg>
