<?xml version="1.0" encoding="utf-8" standalone="no"?>
<!DOCTYPE svg PUBLIC "-//W3C//DTD SVG 1.1//EN"
  "http://www.w3.org/Graphics/SVG/1.1/DTD/svg11.dtd">
<svg xmlns:xlink="http://www.w3.org/1999/xlink" width="238.284pt" height="252.04514pt" viewBox="0 0 238.284 252.04514" xmlns="http://www.w3.org/2000/svg" version="1.1">
 <metadata>
  <rdf:RDF xmlns:dc="http://purl.org/dc/elements/1.1/" xmlns:cc="http://creativecommons.org/ns#" xmlns:rdf="http://www.w3.org/1999/02/22-rdf-syntax-ns#">
   <cc:Work>
    <dc:type rdf:resource="http://purl.org/dc/dcmitype/StillImage"/>
    <dc:date>2026-07-26T21:10:12.239535</dc:date>
    <dc:format>image/svg+xml</dc:format>
    <dc:creator>
     <cc:Agent>
      <dc:title>Matplotlib v3.11.1, https://matplotlib.org/</dc:title>
     </cc:Agent>
    </dc:creator>
   </cc:Work>
  </rdf:RDF>
 </metadata>
 <defs>
  <style type="text/css">*{stroke-linejoin: round; stroke-linecap: butt}</style>
 </defs>
 <g id="figure_1">
  <g id="patch_1">
   <path d="M 0 252.04514
L 238.284 252.04514
L 238.284 0
L 0 0
z
" style="fill: #ffffff"/>
  </g>
  <g id="axes_1">
   <g id="patch_2">
    <path d="M 6.83928 84.818329
L 44.27352 84.818329
L 44.27352 52.998221
L 6.83928 52.998221
z
" clip-path="url(#p32d5269e8e)" style="fill: #ffffff; stroke: #1f6f78; stroke-width: 0.8; stroke-linejoin: miter"/>
   </g>
   <g id="line2d_1">
    <path d="M 44.27352 63.604924
L 95.7456 63.604924
" clip-path="url(#p32d5269e8e)" style="fill: none; stroke: #253238; stroke-width: 0.6; stroke-linecap: square"/>
   </g>
   <g id="line2d_2">
    <path d="M 44.27352 86.807086
L 95.7456 86.807086
" clip-path="url(#p32d5269e8e)" style="fill: none; stroke: #253238; stroke-width: 0.6; stroke-linecap: square"/>
   </g>
   <g id="patch_3">
    <path d="M 95.7456 65.096491
C 121.013712 65.096491 140.666688 61.606123 165.9348 61.606123
L 165.9348 53.671184
C 140.666688 53.671184 121.013712 62.113356 95.7456 62.113356
z
" clip-path="url(#p32d5269e8e)" style="fill: #c85a54; opacity: 0.96; stroke: #c85a54; stroke-width: 0.3; stroke-linejoin: miter"/>
   </g>
   <g id="patch_4">
    <path d="M 95.7456 65.096491
C 121.013712 65.096491 140.666688 73.558752 165.9348 73.558752
L 165.9348 66.909474
C 140.666688 66.909474 121.013712 62.113356 95.7456 62.113356
z
" clip-path="url(#p32d5269e8e)" style="fill: #e9ecee; stroke: #a9b4b8; stroke-width: 0.4; stroke-linejoin: miter"/>
   </g>
   <g id="patch_5">
    <path d="M 95.7456 88.464383
C 121.013712 88.464383 140.666688 90.784599 165.9348 90.784599
L 165.9348 82.829572
C 140.666688 82.829572 121.013712 85.149789 95.7456 85.149789
z
" clip-path="url(#p32d5269e8e)" style="fill: #1f6f78; opacity: 0.98; stroke: #1f6f78; stroke-width: 0.3; stroke-linejoin: miter"/>
   </g>
   <g id="patch_6">
    <path d="M 165.9348 63.273464
L 232.61454 63.273464
L 232.61454 52.003843
L 165.9348 52.003843
z
" clip-path="url(#p32d5269e8e)" style="fill: #c85a54"/>
   </g>
   <g id="patch_7">
    <path d="M 165.9348 75.868924
L 232.61454 75.868924
L 232.61454 64.599302
L 165.9348 64.599302
z
" clip-path="url(#p32d5269e8e)" style="fill: #e9ecee; stroke: #a9b4b8; stroke-width: 0.45; stroke-linejoin: miter"/>
   </g>
   <g id="patch_8">
    <path d="M 165.9348 92.441897
L 232.61454 92.441897
L 232.61454 81.172275
L 165.9348 81.172275
z
" clip-path="url(#p32d5269e8e)" style="fill: #1f6f78"/>
   </g>
   <g id="patch_9">
    <path d="M 6.83928 157.73941
L 44.27352 157.73941
L 44.27352 125.919302
L 6.83928 125.919302
z
" clip-path="url(#p32d5269e8e)" style="fill: #ffffff; stroke: #1f6f78; stroke-width: 0.8; stroke-linejoin: miter"/>
   </g>
   <g id="line2d_3">
    <path d="M 44.27352 136.526005
L 95.7456 136.526005
" clip-path="url(#p32d5269e8e)" style="fill: none; stroke: #253238; stroke-width: 0.6; stroke-linecap: square"/>
   </g>
   <g id="line2d_4">
    <path d="M 44.27352 159.728167
L 95.7456 159.728167
" clip-path="url(#p32d5269e8e)" style="fill: none; stroke: #253238; stroke-width: 0.6; stroke-linecap: square"/>
   </g>
   <g id="patch_10">
    <path d="M 95.7456 138.017572
C 121.013712 138.017572 140.666688 134.016383 165.9348 134.016383
L 165.9348 127.103086
C 140.666688 127.103086 121.013712 135.034437 95.7456 135.034437
z
" clip-path="url(#p32d5269e8e)" style="fill: #c85a54; opacity: 0.96; stroke: #c85a54; stroke-width: 0.3; stroke-linejoin: miter"/>
   </g>
   <g id="patch_11">
    <path d="M 95.7456 138.017572
C 121.013712 138.017572 140.666688 146.990654 165.9348 146.990654
L 165.9348 139.319735
C 140.666688 139.319735 121.013712 135.034437 95.7456 135.034437
z
" clip-path="url(#p32d5269e8e)" style="fill: #e9ecee; stroke: #a9b4b8; stroke-width: 0.4; stroke-linejoin: miter"/>
   </g>
   <g id="patch_12">
    <path d="M 95.7456 161.385464
C 121.013712 161.385464 140.666688 163.705681 165.9348 163.705681
L 165.9348 155.750654
C 140.666688 155.750654 121.013712 158.07087 95.7456 158.07087
z
" clip-path="url(#p32d5269e8e)" style="fill: #1f6f78; opacity: 0.98; stroke: #1f6f78; stroke-width: 0.3; stroke-linejoin: miter"/>
   </g>
   <g id="patch_13">
    <path d="M 165.9348 136.194545
L 232.61454 136.194545
L 232.61454 124.924924
L 165.9348 124.924924
z
" clip-path="url(#p32d5269e8e)" style="fill: #c85a54"/>
   </g>
   <g id="patch_14">
    <path d="M 165.9348 148.790005
L 232.61454 148.790005
L 232.61454 137.520383
L 165.9348 137.520383
z
" clip-path="url(#p32d5269e8e)" style="fill: #e9ecee; stroke: #a9b4b8; stroke-width: 0.45; stroke-linejoin: miter"/>
   </g>
   <g id="patch_15">
    <path d="M 165.9348 165.362978
L 232.61454 165.362978
L 232.61454 154.093356
L 165.9348 154.093356
z
" clip-path="url(#p32d5269e8e)" style="fill: #1f6f78"/>
   </g>
   <g id="patch_16">
    <path d="M 6.83928 230.660491
L 44.27352 230.660491
L 44.27352 198.840383
L 6.83928 198.840383
z
" clip-path="url(#p32d5269e8e)" style="fill: #ffffff; stroke: #1f6f78; stroke-width: 0.8; stroke-linejoin: miter"/>
   </g>
   <g id="line2d_5">
    <path d="M 44.27352 209.447086
L 95.7456 209.447086
" clip-path="url(#p32d5269e8e)" style="fill: none; stroke: #253238; stroke-width: 0.6; stroke-linecap: square"/>
   </g>
   <g id="line2d_6">
    <path d="M 44.27352 232.649248
L 95.7456 232.649248
" clip-path="url(#p32d5269e8e)" style="fill: none; stroke: #253238; stroke-width: 0.6; stroke-linecap: square"/>
   </g>
   <g id="patch_17">
    <path d="M 95.7456 210.938654
C 121.013712 210.938654 140.666688 207.722536 165.9348 207.722536
L 165.9348 199.239095
C 140.666688 199.239095 121.013712 207.955518 95.7456 207.955518
z
" clip-path="url(#p32d5269e8e)" style="fill: #c85a54; opacity: 0.96; stroke: #c85a54; stroke-width: 0.3; stroke-linejoin: miter"/>
   </g>
   <g id="patch_18">
    <path d="M 95.7456 210.938654
C 121.013712 210.938654 140.666688 219.126663 165.9348 219.126663
L 165.9348 213.025887
C 140.666688 213.025887 121.013712 207.955518 95.7456 207.955518
z
" clip-path="url(#p32d5269e8e)" style="fill: #e9ecee; stroke: #a9b4b8; stroke-width: 0.4; stroke-linejoin: miter"/>
   </g>
   <g id="patch_19">
    <path d="M 95.7456 234.306545
C 121.013712 234.306545 140.666688 236.626762 165.9348 236.626762
L 165.9348 228.671735
C 140.666688 228.671735 121.013712 230.991951 95.7456 230.991951
z
" clip-path="url(#p32d5269e8e)" style="fill: #1f6f78; opacity: 0.98; stroke: #1f6f78; stroke-width: 0.3; stroke-linejoin: miter"/>
   </g>
   <g id="patch_20">
    <path d="M 165.9348 209.115626
L 232.61454 209.115626
L 232.61454 197.846005
L 165.9348 197.846005
z
" clip-path="url(#p32d5269e8e)" style="fill: #c85a54"/>
   </g>
   <g id="patch_21">
    <path d="M 165.9348 221.711086
L 232.61454 221.711086
L 232.61454 210.441464
L 165.9348 210.441464
z
" clip-path="url(#p32d5269e8e)" style="fill: #e9ecee; stroke: #a9b4b8; stroke-width: 0.45; stroke-linejoin: miter"/>
   </g>
   <g id="patch_22">
    <path d="M 165.9348 238.284059
L 232.61454 238.284059
L 232.61454 227.014437
L 165.9348 227.014437
z
" clip-path="url(#p32d5269e8e)" style="fill: #1f6f78"/>
   </g>
   <g id="line2d_7">
    <path d="M 2.16 105.368816
L 236.124 105.368816
" clip-path="url(#p32d5269e8e)" style="fill: none; stroke-dasharray: 1.65,1.65; stroke-dashoffset: 0; stroke: #a9b4b8; stroke-width: 0.55"/>
   </g>
   <g id="line2d_8">
    <path d="M 2.16 178.289897
L 236.124 178.289897
" clip-path="url(#p32d5269e8e)" style="fill: none; stroke-dasharray: 1.65,1.65; stroke-dashoffset: 0; stroke: #a9b4b8; stroke-width: 0.55"/>
   </g>
   <g id="text_1">
    <text style="font-weight: 600; font-size: 8.2px; font-family: 'Liberation Sans', 'DejaVu Sans', sans-serif; text-anchor: start; fill: #1f6f78" x="6.83928" y="38.43284" transform="rotate(-0 6.83928 38.43284)">Qwen</text>
   </g>
   <g id="text_2">
    <text style="font-size: 6.2px; font-family: 'Liberation Sans', 'DejaVu Sans', sans-serif" transform="translate(14.995572 65.019713)">shared</text>
    <text style="font-size: 6.2px; font-family: 'Liberation Sans', 'DejaVu Sans', sans-serif" transform="translate(14.360556 70.619088)">eligible</text>
    <!-- $n=66$ -->
    <g transform="translate(15.8224 77.371275)">
     <text>
      <tspan x="0" y="-0.40625" style="font-style: oblique; font-size: 6.2px; font-family: 'DejaVu Sans'">n</tspan>
      <tspan x="5.127045" y="-0.40625" style="font-size: 6.2px; font-family: 'DejaVu Sans'">=</tspan>
      <tspan x="11.516968" y="-0.40625" style="font-size: 6.2px; font-family: 'DejaVu Sans'">6</tspan>
      <tspan x="15.453644" y="-0.40625" style="font-size: 6.2px; font-family: 'DejaVu Sans'">6</tspan>
     </text>
    </g>
   </g>
   <g id="text_3">
    <text style="font-weight: 600; font-size: 6.3px; font-family: 'Liberation Sans', 'DejaVu Sans', sans-serif; text-anchor: middle; fill: #ffffff" x="199.27467" y="59.275423" transform="rotate(-0 199.27467 59.275423)">substitute 41/66</text>
   </g>
   <g id="text_4">
    <text style="font-size: 6.1px; font-family: 'Liberation Sans', 'DejaVu Sans', sans-serif; text-anchor: middle; fill: #253238" x="199.27467" y="71.818922" transform="rotate(-0 199.27467 71.818922)">retain/other 25/66</text>
   </g>
   <g id="text_5">
    <text style="font-weight: 600; font-size: 6.3px; font-family: 'Liberation Sans', 'DejaVu Sans', sans-serif; text-anchor: middle; fill: #ffffff" x="199.27467" y="88.443855" transform="rotate(-0 199.27467 88.443855)">substitute 0/66</text>
   </g>
   <g id="text_6">
    <text style="font-weight: 600; font-size: 8.2px; font-family: 'Liberation Sans', 'DejaVu Sans', sans-serif; text-anchor: start; fill: #1f6f78" x="6.83928" y="111.353921" transform="rotate(-0 6.83928 111.353921)">GLM</text>
   </g>
   <g id="text_7">
    <text style="font-size: 6.2px; font-family: 'Liberation Sans', 'DejaVu Sans', sans-serif" transform="translate(14.995572 137.940794)">shared</text>
    <text style="font-size: 6.2px; font-family: 'Liberation Sans', 'DejaVu Sans', sans-serif" transform="translate(14.360556 143.540169)">eligible</text>
    <!-- $n=70$ -->
    <g transform="translate(15.8224 150.292356)">
     <text>
      <tspan x="0" y="-0.40625" style="font-style: oblique; font-size: 6.2px; font-family: 'DejaVu Sans'">n</tspan>
      <tspan x="5.127045" y="-0.40625" style="font-size: 6.2px; font-family: 'DejaVu Sans'">=</tspan>
      <tspan x="11.516968" y="-0.40625" style="font-size: 6.2px; font-family: 'DejaVu Sans'">7</tspan>
      <tspan x="15.453644" y="-0.40625" style="font-size: 6.2px; font-family: 'DejaVu Sans'">0</tspan>
     </text>
    </g>
   </g>
   <g id="text_8">
    <text style="font-weight: 600; font-size: 6.3px; font-family: 'Liberation Sans', 'DejaVu Sans', sans-serif; text-anchor: middle; fill: #ffffff" x="199.27467" y="132.196504" transform="rotate(-0 199.27467 132.196504)">substitute 30/70</text>
   </g>
   <g id="text_9">
    <text style="font-size: 6.1px; font-family: 'Liberation Sans', 'DejaVu Sans', sans-serif; text-anchor: middle; fill: #253238" x="199.27467" y="144.740003" transform="rotate(-0 199.27467 144.740003)">retain/other 40/70</text>
   </g>
   <g id="text_10">
    <text style="font-weight: 600; font-size: 6.3px; font-family: 'Liberation Sans', 'DejaVu Sans', sans-serif; text-anchor: middle; fill: #ffffff" x="199.27467" y="161.364937" transform="rotate(-0 199.27467 161.364937)">substitute 0/70</text>
   </g>
   <g id="text_11">
    <text style="font-weight: 600; font-size: 8.2px; font-family: 'Liberation Sans', 'DejaVu Sans', sans-serif; text-anchor: start; fill: #1f6f78" x="6.83928" y="184.275002" transform="rotate(-0 6.83928 184.275002)">DeepSeek</text>
   </g>
   <g id="text_12">
    <text style="font-size: 6.2px; font-family: 'Liberation Sans', 'DejaVu Sans', sans-serif" transform="translate(14.995572 210.861875)">shared</text>
    <text style="font-size: 6.2px; font-family: 'Liberation Sans', 'DejaVu Sans', sans-serif" transform="translate(14.360556 216.46125)">eligible</text>
    <!-- $n=69$ -->
    <g transform="translate(15.8224 223.213437)">
     <text>
      <tspan x="0" y="-0.40625" style="font-style: oblique; font-size: 6.2px; font-family: 'DejaVu Sans'">n</tspan>
      <tspan x="5.127045" y="-0.40625" style="font-size: 6.2px; font-family: 'DejaVu Sans'">=</tspan>
      <tspan x="11.516968" y="-0.40625" style="font-size: 6.2px; font-family: 'DejaVu Sans'">6</tspan>
      <tspan x="15.453644" y="-0.40625" style="font-size: 6.2px; font-family: 'DejaVu Sans'">9</tspan>
     </text>
    </g>
   </g>
   <g id="text_13">
    <text style="font-weight: 600; font-size: 6.3px; font-family: 'Liberation Sans', 'DejaVu Sans', sans-serif; text-anchor: middle; fill: #ffffff" x="199.27467" y="205.117585" transform="rotate(-0 199.27467 205.117585)">substitute 50/69</text>
   </g>
   <g id="text_14">
    <text style="font-size: 6.1px; font-family: 'Liberation Sans', 'DejaVu Sans', sans-serif; text-anchor: middle; fill: #253238" x="199.27467" y="217.661084" transform="rotate(-0 199.27467 217.661084)">retain/other 19/69</text>
   </g>
   <g id="text_15">
    <text style="font-weight: 600; font-size: 6.3px; font-family: 'Liberation Sans', 'DejaVu Sans', sans-serif; text-anchor: middle; fill: #ffffff" x="199.27467" y="234.286018" transform="rotate(-0 199.27467 234.286018)">substitute 0/69</text>
   </g>
   <g id="text_16">
    <text style="font-weight: 600; font-size: 7px; font-family: 'Liberation Sans', 'DejaVu Sans', sans-serif; text-anchor: middle; fill: #526066" x="25.5564" y="32.091932" transform="rotate(-0 25.5564 32.091932)">Input</text>
   </g>
   <g id="text_17">
    <text style="font-weight: 600; font-size: 7px; font-family: 'Liberation Sans', 'DejaVu Sans', sans-serif; text-anchor: middle; fill: #526066" x="72.3492" y="32.091932" transform="rotate(-0 72.3492 32.091932)">Method</text>
   </g>
   <g id="text_18">
    <text style="font-weight: 600; font-size: 7px; font-family: 'Liberation Sans', 'DejaVu Sans', sans-serif; text-anchor: middle; fill: #526066" x="199.27467" y="32.091932" transform="rotate(-0 199.27467 32.091932)">Observed target</text>
   </g>
   <g id="text_19">
    <g id="patch_23">
     <path d="M 57.616005 67.223186
L 87.082395 67.223186
L 87.082395 59.986662
L 57.616005 59.986662
z
" style="fill: #ffffff"/>
    </g>
    <text style="font-weight: 600; font-size: 6.7px; font-family: 'Liberation Sans', 'DejaVu Sans', sans-serif; text-anchor: middle" x="72.3492" y="65.345615" transform="rotate(-0 72.3492 65.345615)">Generic</text>
   </g>
   <g id="text_20">
    <g id="patch_24">
     <path d="M 65.004848 90.425086
L 79.693552 90.425086
L 79.693552 83.189086
L 65.004848 83.189086
z
" style="fill: #ffffff"/>
    </g>
    <text style="font-weight: 600; font-size: 6.7px; font-family: 'Liberation Sans', 'DejaVu Sans', sans-serif; text-anchor: middle" x="72.3492" y="88.547516" transform="rotate(-0 72.3492 88.547516)">CTA</text>
   </g>
   <g id="text_21">
    <g id="patch_25">
     <path d="M 57.616005 140.144267
L 87.082395 140.144267
L 87.082395 132.907743
L 57.616005 132.907743
z
" style="fill: #ffffff"/>
    </g>
    <text style="font-weight: 600; font-size: 6.7px; font-family: 'Liberation Sans', 'DejaVu Sans', sans-serif; text-anchor: middle" x="72.3492" y="138.266696" transform="rotate(-0 72.3492 138.266696)">Generic</text>
   </g>
   <g id="text_22">
    <g id="patch_26">
     <path d="M 65.004848 163.346167
L 79.693552 163.346167
L 79.693552 156.110167
L 65.004848 156.110167
z
" style="fill: #ffffff"/>
    </g>
    <text style="font-weight: 600; font-size: 6.7px; font-family: 'Liberation Sans', 'DejaVu Sans', sans-serif; text-anchor: middle" x="72.3492" y="161.468597" transform="rotate(-0 72.3492 161.468597)">CTA</text>
   </g>
   <g id="text_23">
    <g id="patch_27">
     <path d="M 57.616005 213.065348
L 87.082395 213.065348
L 87.082395 205.828824
L 57.616005 205.828824
z
" style="fill: #ffffff"/>
    </g>
    <text style="font-weight: 600; font-size: 6.7px; font-family: 'Liberation Sans', 'DejaVu Sans', sans-serif; text-anchor: middle" x="72.3492" y="211.187777" transform="rotate(-0 72.3492 211.187777)">Generic</text>
   </g>
   <g id="text_24">
    <g id="patch_28">
     <path d="M 65.004848 236.267248
L 79.693552 236.267248
L 79.693552 229.031248
L 65.004848 229.031248
z
" style="fill: #ffffff"/>
    </g>
    <text style="font-weight: 600; font-size: 6.7px; font-family: 'Liberation Sans', 'DejaVu Sans', sans-serif; text-anchor: middle" x="72.3492" y="234.389678" transform="rotate(-0 72.3492 234.389678)">CTA</text>
   </g>
   <g id="legend_1">
    <g id="patch_29">
     <path d="M 32.791 9.583
L 40.471 9.583
L 40.471 5.103
L 32.791 5.103
z
" style="fill: #c85a54"/>
    </g>
    <g id="text_25">
     <text style="font-size: 6.4px; font-family: 'Liberation Sans', 'DejaVu Sans', sans-serif; text-anchor: start" x="42.711" y="9.583" transform="rotate(-0 42.711 9.583)">Refreshed-winner substitution</text>
    </g>
    <g id="patch_30">
     <path d="M 143.935 9.583
L 151.615 9.583
L 151.615 5.103
L 143.935 5.103
z
" style="fill: #e9ecee; stroke: #a9b4b8; stroke-linejoin: miter"/>
    </g>
    <g id="text_26">
     <text style="font-size: 6.4px; font-family: 'Liberation Sans', 'DejaVu Sans', sans-serif; text-anchor: start" x="153.855" y="9.583" transform="rotate(-0 153.855 9.583)">Retained / other</text>
    </g>
   </g>
  </g>
 </g>
 <defs>
  <clipPath id="p32d5269e8e">
   <rect x="2.16" y="29.13314" width="233.964" height="220.752"/>
  </clipPath>
 </defs>
</svg>
